<svg width="20" height="20" viewBox="0 0 20 20" fill="none" xmlns="http://www.w3.org/2000/svg">
<path fill-rule="evenodd" clip-rule="evenodd" d="M15.8929 15.8919C13.3461 18.439 9.57489 18.9892 6.48876 17.562C6.03317 17.3786 5.65965 17.2303 5.30456 17.2303C4.31549 17.2362 3.08439 18.1952 2.44455 17.5561C1.80471 16.9162 2.76447 15.6842 2.76447 14.6891C2.76447 14.334 2.62209 13.9671 2.43869 13.5106C1.01077 10.425 1.56184 6.65257 4.10863 4.10633C7.35975 0.854019 12.6418 0.854019 15.8929 4.10549C19.1499 7.36283 19.144 12.6404 15.8929 15.8919Z" stroke="white" stroke-width="1.5" stroke-linecap="round" stroke-linejoin="round"/>
<path d="M13.2828 10.3444H13.2903" stroke="white" stroke-width="1.5" stroke-linecap="round" stroke-linejoin="round"/>
<path d="M9.94197 10.3444H9.94947" stroke="white" stroke-width="1.5" stroke-linecap="round" stroke-linejoin="round"/>
<path d="M6.60115 10.3444H6.60865" stroke="white" stroke-width="1.5" stroke-linecap="round" stroke-linejoin="round"/>
</svg>
