<svg width="20" height="20" viewBox="0 0 20 20" fill="none" xmlns="http://www.w3.org/2000/svg">
<path fill-rule="evenodd" clip-rule="evenodd" d="M15.8928 15.8919C13.346 18.4389 9.57483 18.9892 6.4887 17.562C6.03311 17.3786 5.65959 17.2303 5.3045 17.2303C4.31543 17.2362 3.08432 18.1952 2.44449 17.5561C1.80465 16.9162 2.76441 15.6842 2.76441 14.6891C2.76441 14.334 2.62203 13.9671 2.43862 13.5106C1.01071 10.425 1.56178 6.65256 4.10857 4.10633C7.35968 0.854019 12.6417 0.854019 15.8928 4.10549C19.1498 7.36283 19.1439 12.6404 15.8928 15.8919Z" stroke="white" stroke-width="1.5" stroke-linecap="round" stroke-linejoin="round"/>
<path d="M13.2829 10.3444H13.2904" stroke="white" stroke-width="1.5" stroke-linecap="round" stroke-linejoin="round"/>
<path d="M9.94203 10.3444H9.94953" stroke="white" stroke-width="1.5" stroke-linecap="round" stroke-linejoin="round"/>
<path d="M6.60121 10.3444H6.60871" stroke="white" stroke-width="1.5" stroke-linecap="round" stroke-linejoin="round"/>
</svg>
