<svg width="28" height="32" viewBox="0 0 28 32" fill="none" xmlns="http://www.w3.org/2000/svg">
<path d="M27.4293 7.36394V31.9999H0.701599V0H20.0655L23.4953 3.42994L27.4293 7.36394Z" fill="#B12A27"/>
<path d="M12.8186 2.14258H0V7.87808H12.8186V2.14258Z" fill="white"/>
<path d="M4.59793 4.02342C4.54137 3.8868 4.466 3.7643 4.36237 3.66067C4.25875 3.55705 4.1315 3.47223 3.98543 3.41567C3.83468 3.35442 3.66506 3.32617 3.47662 3.32617H2.06787V6.96336H2.77931V5.5923H3.47662C3.66506 5.5923 3.83468 5.56405 3.98543 5.5028C4.1315 5.44623 4.25868 5.36148 4.36237 5.2578C4.46606 5.15417 4.54143 5.03636 4.59793 4.89505C4.64975 4.75842 4.67806 4.61236 4.67806 4.46161C4.678 4.30611 4.64975 4.16005 4.59793 4.02342ZM3.82993 4.81961C3.73568 4.90911 3.60381 4.95623 3.44362 4.95623H2.77931V3.95742H3.44362C3.60381 3.95742 3.73575 4.00455 3.82993 4.09873C3.91943 4.18823 3.96656 4.31073 3.96656 4.46148C3.96662 4.60761 3.9195 4.73011 3.82993 4.81961Z" fill="#B12A27"/>
<path d="M7.99953 4.73486C7.99484 4.60767 7.99009 4.49461 7.97597 4.39092C7.96184 4.28723 7.93828 4.19305 7.90528 4.10355C7.87228 4.01873 7.82991 3.93392 7.77334 3.85855C7.64616 3.6748 7.49066 3.53817 7.31634 3.45336C7.13728 3.36855 6.92528 3.32617 6.67559 3.32617H5.36584V6.96336H6.67559C6.92528 6.96336 7.13728 6.92098 7.31634 6.83617C7.49066 6.75136 7.64616 6.61473 7.77334 6.43098C7.82991 6.35561 7.87228 6.2708 7.90528 6.18598C7.93828 6.09648 7.96184 6.00223 7.97597 5.89861C7.99009 5.79498 7.99478 5.68186 7.99953 5.55467C8.00422 5.43217 8.00422 5.29555 8.00422 5.1448C8.00422 4.99405 8.00422 4.85736 7.99953 4.73486ZM7.28809 5.5123C7.28809 5.62067 7.27866 5.70548 7.26922 5.78086C7.25978 5.85155 7.24566 5.91748 7.22685 5.96461C7.20803 6.01642 7.17972 6.06355 7.14678 6.10592C7.02897 6.25667 6.84997 6.32736 6.61441 6.32736H6.0726V3.95748H6.61441C6.84997 3.95748 7.02903 4.03286 7.14678 4.18361C7.17978 4.22598 7.20803 4.26842 7.22685 4.32023C7.24566 4.37205 7.25984 4.4333 7.26922 4.50867C7.27866 4.57936 7.28809 4.66886 7.28809 4.77248C7.29278 4.87617 7.29278 5.00336 7.29278 5.14467C7.29284 5.28611 7.29285 5.40861 7.28809 5.5123Z" fill="#B12A27"/>
<path d="M11.0384 3.95748V3.32617H8.64032V6.96336H9.35176V5.48873H10.7888V4.85267H9.35176V3.95748H11.0384Z" fill="#B12A27"/>
<path d="M4.59793 4.02342C4.54137 3.8868 4.466 3.7643 4.36237 3.66067C4.25875 3.55705 4.1315 3.47223 3.98543 3.41567C3.83468 3.35442 3.66506 3.32617 3.47662 3.32617H2.06787V6.96336H2.77931V5.5923H3.47662C3.66506 5.5923 3.83468 5.56405 3.98543 5.5028C4.1315 5.44623 4.25868 5.36148 4.36237 5.2578C4.46606 5.15417 4.54143 5.03636 4.59793 4.89505C4.64975 4.75842 4.67806 4.61236 4.67806 4.46161C4.678 4.30611 4.64975 4.16005 4.59793 4.02342ZM3.82993 4.81961C3.73568 4.90911 3.60381 4.95623 3.44362 4.95623H2.77931V3.95742H3.44362C3.60381 3.95742 3.73575 4.00455 3.82993 4.09873C3.91943 4.18823 3.96656 4.31073 3.96656 4.46148C3.96662 4.60761 3.9195 4.73011 3.82993 4.81961Z" fill="#B12A27"/>
<path opacity="0.08" d="M27.4293 7.36369V31.9996H0.701599V26.2234L13.1962 13.7288L13.9359 12.9891L14.3458 12.5792L15.029 11.8961L15.8393 11.0857L23.4953 3.42969L27.4293 7.36369Z" fill="white"/>
<path d="M27.4294 7.36475H20.0646V0L27.4294 7.36475Z" fill="#771B1B"/>
<path d="M23.6132 23.1663C23.4577 22.893 23.2457 22.6339 22.9819 22.3983C22.7652 22.2005 22.5108 22.0167 22.2233 21.8471C21.0643 21.164 19.4107 20.8341 17.1633 20.8341H16.9372C16.8147 20.7211 16.6875 20.608 16.5555 20.4902C15.7028 19.7223 15.0243 18.8883 14.4967 17.9602C15.5332 15.6751 16.0278 13.6398 15.9666 11.906C15.9572 11.6139 15.9148 11.3406 15.8394 11.0862C15.7263 10.6763 15.5379 10.3135 15.274 10.0167C15.2693 10.012 15.2693 10.012 15.2646 10.0073C14.8453 9.53614 14.2611 9.26758 13.6674 9.26758C13.069 9.26758 12.5178 9.5267 12.1173 10.0026C11.7216 10.4737 11.5096 11.1192 11.5002 11.8777C11.486 13.0367 11.5802 14.1345 11.7782 15.1474C11.797 15.2275 11.8112 15.3076 11.83 15.3876C12.0278 16.3064 12.32 17.178 12.6968 17.9883C12.254 18.8882 11.8064 19.6656 11.4954 20.1933C11.2598 20.5938 11.0007 21.0131 10.7322 21.4324C9.52135 21.6491 8.49422 21.913 7.59909 22.2428C6.38828 22.681 5.41772 23.2463 4.72041 23.92C4.26809 24.3535 3.96184 24.8152 3.81109 25.2958C3.65091 25.7905 3.66034 26.2851 3.83934 26.728C4.00422 27.1379 4.30103 27.4818 4.69684 27.7174C4.79109 27.774 4.89003 27.821 4.99366 27.8635C5.29522 27.986 5.62497 28.0519 5.96891 28.0519C6.76516 28.0519 7.58491 27.708 8.27747 27.0908C9.56841 25.9365 10.9017 24.0802 11.6885 22.907C12.334 22.8081 13.036 22.7233 13.8275 22.6385C14.7604 22.5442 15.5849 22.4877 16.334 22.4594C16.5649 22.6667 16.7863 22.8646 16.9983 23.053C18.1762 24.1036 19.0713 24.8622 19.8817 25.3946C19.8817 25.3993 19.8864 25.3993 19.8912 25.3993C20.2115 25.6113 20.5178 25.7856 20.824 25.927C21.168 26.0871 21.5166 26.172 21.8747 26.172C22.327 26.172 22.751 26.0353 23.1043 25.7856C23.4624 25.5265 23.7215 25.1543 23.8393 24.735C23.976 24.231 23.8959 23.6704 23.6132 23.1663ZM13.1963 13.7293C13.1303 13.1451 13.102 12.5373 13.1115 11.8966C13.1209 11.2888 13.3423 10.8789 13.6674 10.8789C13.9124 10.8789 14.1715 11.1003 14.2893 11.5243C14.3223 11.6515 14.3458 11.7976 14.3505 11.9625C14.36 12.1603 14.3552 12.3676 14.3458 12.5796C14.3176 13.178 14.2139 13.814 14.0349 14.4972C13.9265 14.9354 13.7852 15.3924 13.6109 15.8682C13.413 15.1993 13.2717 14.4878 13.1963 13.7293ZM5.33766 26.1297C5.25753 25.9318 5.34709 25.5502 5.83709 25.0791C6.58622 24.363 7.75934 23.7976 9.39422 23.3688C9.08328 23.7928 8.77703 24.1792 8.48022 24.5325C8.02791 25.079 7.59447 25.5408 7.20341 25.8894C6.86891 26.1909 6.50141 26.3794 6.15278 26.4265C6.09153 26.436 6.03028 26.4406 5.96903 26.4406C5.66272 26.4407 5.41303 26.3182 5.33766 26.1297ZM12.8665 21.1215L12.8995 21.0697L12.8477 21.0791C12.8571 21.0556 12.8712 21.032 12.8853 21.0132C13.0832 20.6787 13.3329 20.25 13.6015 19.7553L13.625 19.8071L13.6863 19.6799C13.8842 19.9626 14.1009 20.2406 14.327 20.5091C14.4354 20.6363 14.5485 20.7588 14.6615 20.8813L14.5862 20.886L14.6521 20.9472C14.4589 20.9613 14.2563 20.9802 14.0537 20.999C13.9265 21.0131 13.7946 21.0226 13.6627 21.0367C13.3895 21.065 13.1209 21.0933 12.8665 21.1215ZM20.7958 24.0614C20.2351 23.7033 19.6085 23.1992 18.8358 22.5255C19.9336 22.6385 20.7958 22.8788 21.4083 23.2369C21.6768 23.3924 21.8794 23.5526 22.016 23.708C22.2422 23.9483 22.3223 24.165 22.2798 24.3111C22.2422 24.4571 22.0773 24.5561 21.8747 24.5561C21.7568 24.5561 21.6344 24.5278 21.5072 24.4666C21.2904 24.363 21.0643 24.2357 20.824 24.0803C20.8146 24.0803 20.8052 24.0708 20.7958 24.0614Z" fill="white"/>
</svg>
