<svg width="50" height="50" viewBox="0 0 50 50" fill="none" xmlns="http://www.w3.org/2000/svg">
<path d="M25 0.5C25.9438 0.50001 26.8016 1.05071 27.8613 2.43457C28.9213 3.81878 30.0893 5.90972 31.6807 8.76465L32.499 10.2344C33.3772 11.8095 33.8806 12.7319 34.6855 13.3428C35.4933 13.9559 36.4957 14.172 38.2002 14.5576L39.791 14.918C42.8824 15.6175 45.1432 16.1305 46.7275 16.7549C48.302 17.3754 49.08 18.0569 49.3789 19.0176C49.6794 19.9839 49.43 21.0242 48.501 22.5C47.5685 23.9811 46.0265 25.7867 43.9199 28.25L42.835 29.5186C41.671 30.8796 40.9882 31.663 40.6826 32.6455C40.378 33.626 40.4891 34.6751 40.665 36.4922L40.8291 38.1846C41.1475 41.4705 41.3797 43.8805 41.3008 45.6533C41.2219 47.4254 40.8356 48.4129 40.0596 49.002C39.2916 49.5848 38.2915 49.6642 36.665 49.1982C35.032 48.7304 32.9142 47.7565 30.0195 46.4238L28.5303 45.7383C26.9363 45.0044 26.0025 44.5625 25 44.5625C23.9975 44.5625 23.0638 45.0044 21.4697 45.7383L19.9805 46.4238C17.0857 47.7565 14.968 48.7303 13.335 49.1982C11.7084 49.6643 10.7083 49.5848 9.94043 49.002C9.16442 48.4129 8.77816 47.4253 8.69922 45.6533C8.62028 43.8805 8.85248 41.4705 9.1709 38.1846L9.33496 36.4922C9.51104 34.6752 9.6223 33.6261 9.31738 32.6455C9.01182 31.663 8.32902 30.8796 7.16504 29.5186L6.08008 28.25C3.97352 25.7867 2.43146 23.9811 1.49902 22.5C0.57002 21.0242 0.320569 19.9839 0.621094 19.0176C0.919955 18.0568 1.69798 17.3754 3.27246 16.7549C4.85678 16.1305 7.11752 15.6174 10.209 14.918L11.7998 14.5576C13.5041 14.172 14.5067 13.9559 15.3145 13.3428C16.119 12.732 16.622 11.8094 17.5 10.2344L18.3193 8.76465C19.9106 5.91001 21.0778 3.81879 22.1377 2.43457C23.1975 1.05068 24.0562 0.5 25 0.5Z" stroke="#FFC300"/>
<mask id="mask0_2014_7739" style="mask-type:alpha" maskUnits="userSpaceOnUse" x="0" y="0" width="25" height="50">
<rect width="25" height="50" fill="#D9D9D9"/>
</mask>
<g mask="url(#mask0_2014_7739)">
<path d="M17.8829 8.52096C21.0495 2.84033 22.6327 0 25 0C27.3672 0 28.9505 2.8403 32.117 8.52094L32.9362 9.99059C33.8362 11.6048 34.286 12.412 34.9877 12.9445C35.6892 13.4771 36.5627 13.6748 38.3102 14.0701L39.9012 14.4301C46.0502 15.8214 49.1249 16.5171 49.8564 18.8694C50.5879 21.2215 48.4919 23.6728 44.2997 28.5748L43.2152 29.843C42.024 31.236 41.4282 31.9325 41.1602 32.7943C40.8925 33.656 40.9825 34.5853 41.1625 36.4441L41.3265 38.1361C41.9602 44.6766 42.2772 47.9468 40.3622 49.4006C38.447 50.8543 35.5682 49.5288 29.8107 46.8781L28.3212 46.1921C26.6852 45.4388 25.8672 45.0621 25 45.0621C24.1327 45.0621 23.3147 45.4388 21.6787 46.1921L20.1892 46.8781C14.4317 49.5288 11.5529 50.8543 9.63787 49.4006C7.7228 47.9468 8.03969 44.6766 8.67349 38.1361L8.83744 36.4441C9.01757 34.5853 9.10762 33.656 8.83964 32.7943C8.57169 31.9325 7.97607 31.236 6.7848 29.843L5.70025 28.5748C1.50813 23.6728 -0.587944 21.2215 0.143555 18.8694C0.875054 16.5171 3.94965 15.8214 10.0988 14.4301L11.6897 14.0701C13.4371 13.6748 14.3108 13.4771 15.0123 12.9445C15.7139 12.412 16.1638 11.6049 17.0637 9.99059L17.8829 8.52096Z" fill="#FFC300"/>
</g>
</svg>
