<svg width="50" height="50" viewBox="0 0 50 50" fill="none" xmlns="http://www.w3.org/2000/svg">
<path d="M17.8829 8.52096C21.0495 2.84033 22.6327 0 25 0C27.3672 0 28.9505 2.8403 32.117 8.52094L32.9362 9.99059C33.8362 11.6048 34.286 12.412 34.9877 12.9445C35.6892 13.4771 36.5627 13.6748 38.3102 14.0701L39.9012 14.4301C46.0502 15.8214 49.1249 16.5171 49.8564 18.8694C50.5879 21.2215 48.4919 23.6728 44.2997 28.5748L43.2152 29.843C42.024 31.236 41.4282 31.9325 41.1602 32.7943C40.8925 33.656 40.9825 34.5853 41.1625 36.4441L41.3265 38.1361C41.9602 44.6766 42.2772 47.9468 40.3622 49.4006C38.447 50.8543 35.5682 49.5288 29.8107 46.8781L28.3212 46.1921C26.6852 45.4388 25.8672 45.0621 25 45.0621C24.1327 45.0621 23.3147 45.4388 21.6787 46.1921L20.1892 46.8781C14.4317 49.5288 11.5529 50.8543 9.63787 49.4006C7.7228 47.9468 8.03969 44.6766 8.67349 38.1361L8.83744 36.4441C9.01757 34.5853 9.10762 33.656 8.83964 32.7943C8.57169 31.9325 7.97607 31.236 6.7848 29.843L5.70025 28.5748C1.50813 23.6728 -0.587944 21.2215 0.143555 18.8694C0.875054 16.5171 3.94965 15.8214 10.0988 14.4301L11.6897 14.0701C13.4371 13.6748 14.3108 13.4771 15.0123 12.9445C15.7139 12.412 16.1638 11.6049 17.0637 9.99059L17.8829 8.52096Z" fill="#FFC300"/>
</svg>
