<svg width="15" height="17" viewBox="0 0 15 17" fill="none" xmlns="http://www.w3.org/2000/svg">
<path d="M13.3594 6.52148C13.805 6.52148 14.167 6.8785 14.167 7.31934C14.1668 10.9057 11.4166 13.8669 7.89062 14.2646V15.8691C7.89062 16.3091 7.52948 16.6669 7.08398 16.667C6.63757 16.667 6.27637 16.3092 6.27637 15.8691V14.2646C2.7496 13.8668 0.000166654 10.9056 0 7.31934C0 6.8785 0.362008 6.52148 0.807617 6.52148C1.25306 6.52167 1.61426 6.87862 1.61426 7.31934C1.61444 10.2966 4.06816 12.7188 7.08398 12.7188C10.0989 12.7186 12.5516 10.2965 12.5518 7.31934C12.5518 6.87851 12.9138 6.5215 13.3594 6.52148ZM7.22852 0C8.89067 0 10.292 1.10351 10.7207 2.60938C10.7794 2.81572 10.6234 3.02047 10.4072 3.02051H9.46387C9.21465 3.02051 9.00542 3.19478 8.95703 3.42676L8.94727 3.53027C8.94727 3.81247 9.1789 4.04102 9.46387 4.04102H10.334C10.622 4.04117 10.8563 4.27125 10.8564 4.55566C10.8564 4.84016 10.622 5.07114 10.334 5.07129H9.46387C9.1789 5.07129 8.94727 5.29983 8.94727 5.58203C8.94739 5.86333 9.17898 6.0918 9.46387 6.0918H10.334C10.6219 6.09195 10.8563 6.32229 10.8564 6.60742C10.8564 6.89112 10.622 7.12192 10.334 7.12207H9.46387C9.17894 7.12207 8.94733 7.35067 8.94727 7.63281C8.94727 7.91421 9.1789 8.14258 9.46387 8.14258H10.3613C10.5824 8.1427 10.7403 8.35627 10.6709 8.56348C10.1921 9.98708 8.83244 11.0137 7.22852 11.0137H6.9375C4.9347 11.0136 3.31152 9.41057 3.31152 7.43359V3.58105C3.31152 1.60328 4.9347 2.19636e-05 6.9375 0H7.22852Z" fill="#272727"/>
</svg>
