<svg width="20" height="20" viewBox="0 0 20 20" fill="none" xmlns="http://www.w3.org/2000/svg">
<g clip-path="url(#clip0_2014_8011)">
<path d="M6.54453 16.0763C6.33658 15.8684 6.00031 15.8684 5.79236 16.0763C5.5844 16.2843 5.5844 16.6205 5.79236 16.8285L6.39409 17.4302H3.95175C2.36334 17.4302 1.0758 16.1382 1.0758 14.5543V12.7712C1.0758 12.4792 0.836879 12.2402 0.54486 12.2402C0.252841 12.2402 0.013916 12.4792 0.013916 12.7712V14.5543C0.013916 16.7267 1.77931 18.4921 3.95175 18.4921H6.39409L5.79236 19.0938C5.5844 19.3018 5.5844 19.6381 5.79236 19.846C5.89412 19.9478 6.03128 20.0009 6.16844 20.0009C6.3056 20.0009 6.43834 19.9478 6.54453 19.846L8.05329 18.3372C8.26125 18.1293 8.26125 17.793 8.05329 17.5851L6.54453 16.0763Z" fill="white"/>
<path d="M9.30541 0.00195312H0.584655C0.292636 0.00195312 0.0537109 0.240878 0.0537109 0.532897V9.25365C0.0537109 9.54567 0.292636 9.7846 0.584655 9.7846H9.30541C9.59743 9.7846 9.83636 9.54567 9.83636 9.25365V0.532897C9.83636 0.240878 9.60186 0.00195312 9.30541 0.00195312ZM8.77447 8.72271H1.1156V1.06384H8.77447V8.72271Z" fill="white"/>
<path d="M16.0441 1.50987H13.6018L14.2035 0.908136C14.4114 0.700183 14.4114 0.363918 14.2035 0.155965C13.9955 -0.0519883 13.6593 -0.0519883 13.4513 0.155965L11.947 1.66473C11.739 1.87268 11.739 2.20895 11.947 2.4169L13.4557 3.92567C13.5575 4.02743 13.6947 4.08053 13.8318 4.08053C13.969 4.08053 14.1017 4.02743 14.2079 3.92567C14.4159 3.71772 14.4159 3.38145 14.2079 3.1735L13.6062 2.57176H16.0485C17.6369 2.57176 18.9245 3.86372 18.9245 5.44771V7.2308C18.9245 7.52281 19.1634 7.76174 19.4554 7.76174C19.7474 7.76174 19.9864 7.52281 19.9864 7.2308V5.44771C19.9864 3.27526 18.2165 1.50987 16.0441 1.50987Z" fill="white"/>
<path d="M19.4155 18.9375C19.2739 18.9375 19.1367 18.995 19.0394 19.0924C18.942 19.1897 18.8845 19.3269 18.8845 19.4684C18.8845 19.6056 18.942 19.7472 19.0394 19.8445C19.1367 19.9419 19.2739 19.9994 19.4155 19.9994C19.5571 19.9994 19.6942 19.9419 19.7916 19.8445C19.8889 19.7472 19.9464 19.61 19.9464 19.4684C19.9464 19.3269 19.8889 19.1897 19.7916 19.0924C19.6898 18.995 19.5526 18.9375 19.4155 18.9375Z" fill="white"/>
<path d="M17.2343 18.9375C16.9423 18.9375 16.7034 19.1764 16.7034 19.4684C16.7034 19.7605 16.9423 19.9994 17.2343 19.9994C17.5263 19.9994 17.7653 19.7605 17.7653 19.4684C17.7653 19.1764 17.5263 18.9375 17.2343 18.9375Z" fill="white"/>
<path d="M12.8715 18.9375C12.5795 18.9375 12.3406 19.1764 12.3406 19.4684C12.3406 19.7605 12.5795 19.9994 12.8715 19.9994C13.1635 19.9994 13.4025 19.7605 13.4025 19.4684C13.4025 19.1764 13.168 18.9375 12.8715 18.9375Z" fill="white"/>
<path d="M15.0529 18.9375C14.7609 18.9375 14.522 19.1764 14.522 19.4684C14.522 19.7605 14.7609 19.9994 15.0529 19.9994C15.3449 19.9994 15.5839 19.7605 15.5839 19.4684C15.5839 19.1764 15.3449 18.9375 15.0529 18.9375Z" fill="white"/>
<path d="M10.6948 18.9375C10.5532 18.9375 10.416 18.995 10.3187 19.0924C10.2213 19.1897 10.1638 19.3269 10.1638 19.4684C10.1638 19.6056 10.2213 19.7472 10.3187 19.8445C10.416 19.9419 10.5532 19.9994 10.6948 19.9994C10.8319 19.9994 10.9735 19.9419 11.0708 19.8445C11.1682 19.7472 11.2257 19.61 11.2257 19.4684C11.2257 19.3269 11.1682 19.1897 11.0708 19.0924C10.9735 18.995 10.8319 18.9375 10.6948 18.9375Z" fill="white"/>
<path d="M10.6948 16.7559C10.4027 16.7559 10.1638 16.9948 10.1638 17.2868C10.1638 17.5788 10.4027 17.8177 10.6948 17.8177C10.9868 17.8177 11.2257 17.5788 11.2257 17.2868C11.2257 16.9948 10.9867 16.7559 10.6948 16.7559Z" fill="white"/>
<path d="M10.6948 14.5762C10.4027 14.5762 10.1638 14.8151 10.1638 15.1071C10.1638 15.3991 10.4027 15.6381 10.6948 15.6381C10.9868 15.6381 11.2257 15.3991 11.2257 15.1071C11.2257 14.8151 10.9867 14.5762 10.6948 14.5762Z" fill="white"/>
<path d="M10.6948 12.3945C10.4027 12.3945 10.1638 12.6335 10.1638 12.9255C10.1638 13.2175 10.4027 13.4564 10.6948 13.4564C10.9868 13.4564 11.2257 13.2175 11.2257 12.9255C11.2257 12.6335 10.9867 12.3945 10.6948 12.3945Z" fill="white"/>
<path d="M10.6948 10.2168C10.5532 10.2168 10.416 10.2743 10.3187 10.3717C10.2213 10.469 10.1638 10.6062 10.1638 10.7477C10.1638 10.8893 10.2213 11.0265 10.3187 11.1238C10.416 11.2212 10.5532 11.2787 10.6948 11.2787C10.8319 11.2787 10.9735 11.2212 11.0708 11.1238C11.1682 11.0265 11.2257 10.8893 11.2257 10.7477C11.2257 10.6106 11.1682 10.469 11.0708 10.3717C10.969 10.2699 10.8319 10.2168 10.6948 10.2168Z" fill="white"/>
<path d="M17.2343 10.2168C16.9423 10.2168 16.7034 10.4557 16.7034 10.7477C16.7034 11.0398 16.9423 11.2787 17.2343 11.2787C17.5263 11.2787 17.7653 11.0398 17.7653 10.7477C17.7653 10.4557 17.5263 10.2168 17.2343 10.2168Z" fill="white"/>
<path d="M15.0529 10.2168C14.7609 10.2168 14.522 10.4557 14.522 10.7477C14.522 11.0398 14.7609 11.2787 15.0529 11.2787C15.3449 11.2787 15.5839 11.0398 15.5839 10.7477C15.5839 10.4557 15.3449 10.2168 15.0529 10.2168Z" fill="white"/>
<path d="M12.8715 10.2168C12.5795 10.2168 12.3406 10.4557 12.3406 10.7477C12.3406 11.0398 12.5795 11.2787 12.8715 11.2787C13.1635 11.2787 13.4025 11.0398 13.4025 10.7477C13.4025 10.4557 13.168 10.2168 12.8715 10.2168Z" fill="white"/>
<path d="M19.4155 10.2168C19.2739 10.2168 19.1367 10.2743 19.0394 10.3717C18.942 10.469 18.8845 10.6062 18.8845 10.7477C18.8845 10.8893 18.942 11.0265 19.0394 11.1238C19.1367 11.2212 19.2739 11.2787 19.4155 11.2787C19.5571 11.2787 19.6942 11.2212 19.7916 11.1238C19.8889 11.0265 19.9464 10.8893 19.9464 10.7477C19.9464 10.6106 19.8889 10.469 19.7916 10.3717C19.6898 10.2743 19.5526 10.2168 19.4155 10.2168Z" fill="white"/>
<path d="M19.4155 12.3945C19.1234 12.3945 18.8845 12.6335 18.8845 12.9255C18.8845 13.2175 19.1234 13.4564 19.4155 13.4564C19.7075 13.4564 19.9464 13.2175 19.9464 12.9255C19.9464 12.6335 19.7075 12.3945 19.4155 12.3945Z" fill="white"/>
<path d="M19.4155 16.7559C19.1234 16.7559 18.8845 16.9948 18.8845 17.2868C18.8845 17.5788 19.1234 17.8177 19.4155 17.8177C19.7075 17.8177 19.9464 17.5788 19.9464 17.2868C19.9464 16.9948 19.7075 16.7559 19.4155 16.7559Z" fill="white"/>
<path d="M19.4155 14.5762C19.1234 14.5762 18.8845 14.8151 18.8845 15.1071C18.8845 15.3991 19.1234 15.6381 19.4155 15.6381C19.7075 15.6381 19.9464 15.3991 19.9464 15.1071C19.9464 14.8151 19.7075 14.5762 19.4155 14.5762Z" fill="white"/>
</g>
<defs>
<clipPath id="clip0_2014_8011">
<rect width="20" height="20" fill="white"/>
</clipPath>
</defs>
</svg>
