<svg width="20" height="20" viewBox="0 0 20 20" fill="none" xmlns="http://www.w3.org/2000/svg">
<path d="M18.0076 11.3007L18.1986 9.27127C18.3486 7.67743 18.4236 6.88051 18.1509 6.55107C18.0034 6.37287 17.8028 6.26368 17.5884 6.24485C17.192 6.21003 16.6942 6.77677 15.6985 7.91024C15.1836 8.49643 14.9262 8.78952 14.6389 8.83493C14.4798 8.86002 14.3177 8.83418 14.1707 8.76027C13.9055 8.62677 13.7287 8.26445 13.375 7.53977L11.511 3.72006C10.8427 2.3507 10.5086 1.66602 10.0001 1.66602C9.49158 1.66602 9.15741 2.3507 8.48916 3.72007L6.62514 7.53978C6.2715 8.26445 6.09467 8.62677 5.82946 8.76027C5.68251 8.83418 5.52036 8.86002 5.36122 8.83493C5.07401 8.78952 4.81655 8.49643 4.30164 7.91024C3.30598 6.77677 2.80815 6.21003 2.41174 6.24485C2.1973 6.26368 1.99673 6.37287 1.84924 6.55107C1.57658 6.88051 1.65158 7.67743 1.80159 9.27127L1.99258 11.3007C2.30729 14.6445 2.46465 16.3164 3.45015 17.3245C4.43567 18.3327 5.91272 18.3327 8.86683 18.3327H11.1333C14.0874 18.3327 15.5645 18.3327 16.55 17.3245C17.5355 16.3164 17.6928 14.6445 18.0076 11.3007Z" stroke="white" stroke-width="1.5"/>
<path d="M7.5 15H12.5" stroke="white" stroke-width="1.5" stroke-linecap="round"/>
</svg>
