<svg width="20" height="20" viewBox="0 0 20 20" fill="none" xmlns="http://www.w3.org/2000/svg">
<path fill-rule="evenodd" clip-rule="evenodd" d="M4.23223 4.22409C7.39502 1.06578 12.5364 1.09936 15.7185 4.28148C18.902 7.46498 18.9343 12.6094 15.7718 15.7718C12.6093 18.9343 7.46494 18.902 4.28145 15.7185C2.39491 13.832 1.61587 11.2583 1.95039 8.81767C1.99727 8.47567 2.3125 8.23648 2.65447 8.28335C2.99646 8.33023 3.23568 8.64542 3.18882 8.98742C2.9055 11.0543 3.56485 13.2342 5.16533 14.8347C7.86907 17.5384 12.222 17.5538 14.8879 14.8879C17.5538 12.222 17.5383 7.8691 14.8346 5.16537C12.1322 2.46301 7.78241 2.44616 5.11612 5.10798L5.73921 5.11111C6.08438 5.11284 6.36279 5.39407 6.36106 5.73924C6.35932 6.08442 6.0781 6.36283 5.73292 6.36109L3.61163 6.35043C3.26891 6.34871 2.99151 6.0713 2.98978 5.72858L2.97912 3.60728C2.97738 3.26212 3.2558 2.98089 3.60097 2.97915C3.94615 2.97742 4.22737 3.25583 4.22911 3.60101L4.23223 4.22409Z" fill="white"/>
<path d="M10 6.04102C10.3452 6.04102 10.625 6.32084 10.625 6.66602V9.74043L12.5253 11.6408C12.7693 11.8848 12.7693 12.2805 12.5253 12.5246C12.2812 12.7687 11.8855 12.7687 11.6414 12.5246L9.61908 10.5023C9.46283 10.346 9.375 10.1341 9.375 9.91302V6.66602C9.375 6.32084 9.65483 6.04102 10 6.04102Z" fill="white"/>
</svg>
