<svg width="12" height="12" viewBox="0 0 12 12" fill="none" xmlns="http://www.w3.org/2000/svg">
<path d="M0.72 4.8C0.322358 4.8 0 5.12237 0 5.52C0 5.91763 0.322358 6.24 0.72 6.24V4.8ZM5.52 6.24C5.91763 6.24 6.24 5.91763 6.24 5.52C6.24 5.12237 5.91763 4.8 5.52 4.8V6.24ZM5.52 4.8C5.12237 4.8 4.8 5.12237 4.8 5.52C4.8 5.91763 5.12237 6.24 5.52 6.24V4.8ZM10.32 6.24C10.7176 6.24 11.04 5.91763 11.04 5.52C11.04 5.12237 10.7176 4.8 10.32 4.8V6.24ZM6.24 5.52C6.24 5.12237 5.91763 4.8 5.52 4.8C5.12237 4.8 4.8 5.12237 4.8 5.52H6.24ZM4.8 10.32C4.8 10.7176 5.12237 11.04 5.52 11.04C5.91763 11.04 6.24 10.7176 6.24 10.32H4.8ZM4.8 5.52C4.8 5.91763 5.12237 6.24 5.52 6.24C5.91763 6.24 6.24 5.91763 6.24 5.52H4.8ZM6.24 0.72C6.24 0.322358 5.91763 0 5.52 0C5.12237 0 4.8 0.322358 4.8 0.72H6.24ZM0.72 6.24H5.52V4.8H0.72V6.24ZM5.52 6.24H10.32V4.8H5.52V6.24ZM5.52 5.52H4.8V5.52096C4.8 5.52106 4.8 5.52211 4.8 5.52211C4.8 5.52202 4.8 5.52221 4.8 5.52211C4.8 5.52211 4.8 5.52317 4.8 5.52326C4.8 5.52317 4.8 5.52336 4.8 5.52326C4.8 5.52336 4.8 5.52413 4.8 5.52422C4.8 5.52432 4.8 5.52518 4.8 5.52528C4.8 5.52538 4.8 5.52614 4.8 5.52624C4.8 5.52634 4.8 5.5272 4.8 5.52739C4.8 5.52749 4.8 5.52835 4.8 5.52854C4.8 5.52864 4.8 5.5297 4.8 5.52979C4.8 5.5296 4.8 5.52998 4.8 5.52979C4.8 5.52998 4.8 5.53056 4.8 5.53075C4.8 5.53056 4.8 5.53094 4.8 5.53075C4.8 5.53094 4.8 5.53162 4.8 5.53171C4.8 5.53152 4.8 5.5319 4.8 5.53171C4.8 5.5319 4.8 5.53258 4.8 5.53277C4.8 5.53258 4.8 5.53296 4.8 5.53277C4.8 5.53296 4.8 5.53373 4.8 5.53392C4.8 5.53373 4.8 5.53411 4.8 5.53392C4.8 5.53411 4.8 5.53488 4.8 5.53507C4.8 5.53478 4.8 5.53526 4.8 5.53507C4.8 5.53526 4.8 5.53613 4.8 5.53632C4.8 5.53613 4.8 5.53651 4.8 5.53632C4.8 5.53651 4.8 5.53738 4.8 5.53766C4.8 5.53738 4.8 5.53786 4.8 5.53766C4.8 5.53786 4.8 5.53882 4.8 5.53901C4.8 5.53882 4.8 5.5392 4.8 5.53901C4.8 5.5393 4.8 5.54016 4.8 5.54045C4.8 5.54016 4.8 5.54074 4.8 5.54045C4.8 5.54064 4.8 5.5417 4.8 5.54198C4.8 5.5417 4.8 5.54218 4.8 5.54198C4.8 5.54227 4.8 5.54323 4.8 5.54352C4.8 5.54323 4.8 5.54381 4.8 5.54352C4.8 5.54381 4.8 5.54496 4.8 5.54525C4.8 5.54496 4.8 5.54554 4.8 5.54525C4.8 5.54554 4.8 5.54669 4.8 5.54698C4.8 5.54669 4.8 5.54726 4.8 5.54698C4.8 5.54726 4.8 5.54842 4.8 5.5488C4.8 5.54851 4.8 5.54909 4.8 5.5488C4.8 5.54918 4.8 5.55034 4.8 5.55062C4.8 5.55101 4.8 5.5513 4.8 5.55168C4.8 5.55197 4.8 5.55226 4.8 5.55264C4.8 5.55302 4.8 5.55331 4.8 5.5537C4.8 5.55398 4.8 5.55437 4.8 5.55466C4.8 5.55504 4.8 5.55542 4.8 5.55581C4.8 5.5561 4.8 5.55648 4.8 5.55686C4.8 5.55725 4.8 5.55754 4.8 5.55792C4.8 5.5583 4.8 5.55869 4.8 5.55907C4.8 5.55946 4.8 5.55984 4.8 5.56022C4.8 5.56061 4.8 5.56099 4.8 5.56138C4.8 5.56176 4.8 5.56224 4.8 5.56262C4.8 5.56301 4.8 5.56339 4.8 5.56378C4.8 5.56426 4.8 5.56464 4.8 5.56502C4.8 5.5655 4.8 5.56589 4.8 5.56627C4.8 5.56675 4.8 5.56714 4.8 5.56762C4.8 5.568 4.8 5.56848 4.8 5.56886C4.8 5.56934 4.8 5.56982 4.8 5.57021C4.8 5.57069 4.8 5.57117 4.8 5.57165C4.8 5.57203 4.8 5.57251 4.8 5.57299C4.8 5.57347 4.8 5.57395 4.8 5.57443C4.8 5.57482 4.8 5.5753 4.8 5.57578C4.8 5.57626 4.8 5.57683 4.8 5.57731C4.8 5.57779 4.8 5.57827 4.8 5.57875C4.8 5.57923 4.8 5.57971 4.8 5.58029C4.8 5.58077 4.8 5.58125 4.8 5.58182C4.8 5.5823 4.8 5.58288 4.8 5.58336C4.8 5.58384 4.8 5.58442 4.8 5.5849C4.8 5.58547 4.8 5.58605 4.8 5.58653C4.8 5.5871 4.8 5.58768 4.8 5.58816C4.8 5.58874 4.8 5.58931 4.8 5.58989C4.8 5.59037 4.8 5.59094 4.8 5.59152C4.8 5.5921 4.8 5.59267 4.8 5.59325C4.8 5.59382 4.8 5.5944 4.8 5.59498C4.8 5.59555 4.8 5.59622 4.8 5.5968C4.8 5.59738 4.8 5.59795 4.8 5.59853C4.8 5.5992 4.8 5.59978 4.8 5.60035C4.8 5.60102 4.8 5.6016 4.8 5.60227C4.8 5.60285 4.8 5.60352 4.8 5.6041C4.8 5.60477 4.8 5.60544 4.8 5.60602C4.8 5.60669 4.8 5.60736 4.8 5.60803C4.8 5.60861 4.8 5.60928 4.8 5.60995C4.8 5.61062 4.8 5.6113 4.8 5.61197C4.8 5.61264 4.8 5.61331 4.8 5.61398C4.8 5.61466 4.8 5.61533 4.8 5.616C4.8 5.61677 4.8 5.61744 4.8 5.61811C4.8 5.61888 4.8 5.61955 4.8 5.62022C4.8 5.62099 4.8 5.62166 4.8 5.62243C4.8 5.6231 4.8 5.62387 4.8 5.62454C4.8 5.62531 4.8 5.62608 4.8 5.62675C4.8 5.62752 4.8 5.62829 4.8 5.62906C4.8 5.62982 4.8 5.6305 4.8 5.63126C4.8 5.63203 4.8 5.6328 4.8 5.63357C4.8 5.63434 4.8 5.6352 4.8 5.63597C4.8 5.63674 4.8 5.6375 4.8 5.63827C4.8 5.63914 4.8 5.6399 4.8 5.64067C4.8 5.64154 4.8 5.6423 4.8 5.64317C4.8 5.64394 4.8 5.6448 4.8 5.64557C4.8 5.64643 4.8 5.6473 4.8 5.64806C4.8 5.64893 4.8 5.64979 4.8 5.65066C4.8 5.65142 4.8 5.65229 4.8 5.65315C4.8 5.65402 4.8 5.65488 4.8 5.65574C4.8 5.65661 4.8 5.65747 4.8 5.65843C4.8 5.6593 4.8 5.66016 4.8 5.66102C4.8 5.66198 4.8 5.66285 4.8 5.66371C4.8 5.66467 4.8 5.66554 4.8 5.6665C4.8 5.66736 4.8 5.66832 4.8 5.66928C4.8 5.67014 4.8 5.6711 4.8 5.67206C4.8 5.67302 4.8 5.67389 4.8 5.67485C4.8 5.67581 4.8 5.67677 4.8 5.67773C4.8 5.67869 4.8 5.67965 4.8 5.68061C4.8 5.68166 4.8 5.68262 4.8 5.68358C4.8 5.68454 4.8 5.6856 4.8 5.68656C4.8 5.68752 4.8 5.68858 4.8 5.68954C4.8 5.69059 4.8 5.69155 4.8 5.69261C4.8 5.69366 4.8 5.69462 4.8 5.69568C4.8 5.69674 4.8 5.69779 4.8 5.69885C4.8 5.6999 4.8 5.70096 4.8 5.70202C4.8 5.70307 4.8 5.70413 4.8 5.70518C4.8 5.70624 4.8 5.7073 4.8 5.70835C4.8 5.7095 4.8 5.71056 4.8 5.71171C4.8 5.71277 4.8 5.71382 4.8 5.71498C4.8 5.71603 4.8 5.71718 4.8 5.71834C4.8 5.71939 4.8 5.72054 4.8 5.7217C4.8 5.72285 4.8 5.724 4.8 5.72515C4.8 5.7263 4.8 5.72746 4.8 5.72861C4.8 5.72976 4.8 5.73091 4.8 5.73206C4.8 5.73322 4.8 5.73437 4.8 5.73562C4.8 5.73677 4.8 5.73802 4.8 5.73917C4.8 5.74042 4.8 5.74157 4.8 5.74282C4.8 5.74397 4.8 5.74522 4.8 5.74646C4.8 5.74762 4.8 5.74886 4.8 5.75011C4.8 5.75136 4.8 5.75261 4.8 5.75386C4.8 5.7551 4.8 5.75635 4.8 5.7576C4.8 5.75885 4.8 5.76019 4.8 5.76144C4.8 5.76269 4.8 5.76403 4.8 5.76528C4.8 5.76662 4.8 5.76787 4.8 5.76922C4.8 5.77046 4.8 5.77181 4.8 5.77315C4.8 5.7744 4.8 5.77574 4.8 5.77709C4.8 5.77843 4.8 5.77978 4.8 5.78112C4.8 5.78246 4.8 5.78381 4.8 5.78515C4.8 5.7865 4.8 5.78794 4.8 5.78928C4.8 5.79062 4.8 5.79206 4.8 5.79341C4.8 5.79485 4.8 5.79619 4.8 5.79763C4.8 5.79898 4.8 5.80042 4.8 5.80186C4.8 5.8033 4.8 5.80464 4.8 5.80608C4.8 5.80752 4.8 5.80896 4.8 5.8104C4.8 5.81184 4.8 5.81328 4.8 5.81482C4.8 5.81626 4.8 5.8177 4.8 5.81914C4.8 5.82067 4.8 5.82211 4.8 5.82365C4.8 5.82509 4.8 5.82662 4.8 5.82806C4.8 5.8296 4.8 5.83114 4.8 5.83267C4.8 5.83411 4.8 5.83565 4.8 5.83718C4.8 5.83872 4.8 5.84026 4.8 5.84179C4.8 5.84333 4.8 5.84496 4.8 5.8465C4.8 5.84803 4.8 5.84966 4.8 5.8512C4.8 5.85274 4.8 5.85437 4.8 5.856C4.8 5.85754 4.8 5.85917 4.8 5.8608C4.8 5.86234 4.8 5.86397 4.8 5.8656C4.8 5.86723 4.8 5.86886 4.8 5.8705C4.8 5.87213 4.8 5.87376 4.8 5.87539C4.8 5.87712 4.8 5.87875 4.8 5.88038C4.8 5.88211 4.8 5.88374 4.8 5.88547C4.8 5.8871 4.8 5.88883 4.8 5.89046C4.8 5.89219 4.8 5.89392 4.8 5.89565C4.8 5.89738 4.8 5.8991 4.8 5.90083C4.8 5.90256 4.8 5.90429 4.8 5.90602C4.8 5.90774 4.8 5.90947 4.8 5.9113C4.8 5.91302 4.8 5.91485 4.8 5.91658C4.8 5.9184 4.8 5.92013 4.8 5.92195C4.8 5.92378 4.8 5.9255 4.8 5.92733C4.8 5.92915 4.8 5.93098 4.8 5.9328C4.8 5.93462 4.8 5.93645 4.8 5.93837C4.8 5.94019 4.8 5.94202 4.8 5.94384C4.8 5.94576 4.8 5.94758 4.8 5.9495C4.8 5.95133 4.8 5.95325 4.8 5.95517C4.8 5.95699 4.8 5.95891 4.8 5.96083C4.8 5.96275 4.8 5.96467 4.8 5.96659C4.8 5.96851 4.8 5.97043 4.8 5.97235C4.8 5.97427 4.8 5.97629 4.8 5.97821C4.8 5.98022 4.8 5.98214 4.8 5.98416C4.8 5.98608 4.8 5.9881 4.8 5.99011C4.8 5.99203 4.8 5.99405 4.8 5.99606C4.8 5.99808 4.8 6.0001 4.8 6.00211C4.8 6.00413 4.8 6.00614 4.8 6.00826C4.8 6.01027 4.8 6.01229 4.8 6.0144C4.8 6.01642 4.8 6.01853 4.8 6.02054C4.8 6.02266 4.8 6.02477 4.8 6.02688C4.8 6.0289 4.8 6.03101 4.8 6.03312C4.8 6.03523 4.8 6.03734 4.8 6.03955C4.8 6.04166 4.8 6.04378 4.8 6.04589C4.8 6.0481 4.8 6.05021 4.8 6.05242C4.8 6.05453 4.8 6.05674 4.8 6.05894C4.8 6.06106 4.8 6.06326 4.8 6.06547C4.8 6.06768 4.8 6.06989 4.8 6.0721C4.8 6.0743 4.8 6.07651 4.8 6.07882C4.8 6.08102 4.8 6.08323 4.8 6.08554C4.8 6.08774 4.8 6.09005 4.8 6.09235C4.8 6.09456 4.8 6.09686 4.8 6.09917C4.8 6.10147 4.8 6.10378 4.8 6.10608C4.8 6.10838 4.8 6.11069 4.8 6.11299C4.8 6.1153 4.8 6.1177 4.8 6.12C4.8 6.1223 4.8 6.1247 4.8 6.1271C4.8 6.12941 4.8 6.13181 4.8 6.13421C4.8 6.13651 4.8 6.13891 4.8 6.14131C4.8 6.14371 4.8 6.14611 4.8 6.14861C4.8 6.15101 4.8 6.15341 4.8 6.15581C4.8 6.1583 4.8 6.1607 4.8 6.1632C4.8 6.1656 4.8 6.1681 4.8 6.17059C4.8 6.17309 4.8 6.17549 4.8 6.17798C4.8 6.18048 4.8 6.18298 4.8 6.18557C4.8 6.18806 4.8 6.19056 4.8 6.19306C4.8 6.19565 4.8 6.19814 4.8 6.20074C4.8 6.20323 4.8 6.20582 4.8 6.20842C4.8 6.21101 4.8 6.2135 4.8 6.2161C4.8 6.21869 4.8 6.22128 4.8 6.22387C4.8 6.22656 4.8 6.22915 4.8 6.23174C4.8 6.23443 4.8 6.23702 4.8 6.23971C4.8 6.2423 4.8 6.24499 4.8 6.24768C4.8 6.25027 4.8 6.25296 4.8 6.25565C4.8 6.25834 4.8 6.26102 4.8 6.26371C4.8 6.2665 4.8 6.26918 4.8 6.27187C4.8 6.27466 4.8 6.27734 4.8 6.28013C4.8 6.28282 4.8 6.2856 4.8 6.28838C4.8 6.29117 4.8 6.29386 4.8 6.29664C4.8 6.29942 4.8 6.3023 4.8 6.30509C4.8 6.30787 4.8 6.31066 4.8 6.31354C4.8 6.31632 4.8 6.3192 4.8 6.32198C4.8 6.32486 4.8 6.32774 4.8 6.33053C4.8 6.33341 4.8 6.33629 4.8 6.33917C4.8 6.34205 4.8 6.34493 4.8 6.3479C4.8 6.35078 4.8 6.35366 4.8 6.35664C4.8 6.35952 4.8 6.3625 4.8 6.36547C4.8 6.36835 4.8 6.37133 4.8 6.3743C4.8 6.37728 4.8 6.38026 4.8 6.38323C4.8 6.38621 4.8 6.38918 4.8 6.39226C4.8 6.39523 4.8 6.39821 4.8 6.40128C4.8 6.40426 4.8 6.40733 4.8 6.4104C4.8 6.41347 4.8 6.41654 4.8 6.41962C4.8 6.42259 4.8 6.42576 4.8 6.42883C4.8 6.4319 4.8 6.43498 4.8 6.43814C4.8 6.44122 4.8 6.44438 4.8 6.44746C4.8 6.45062 4.8 6.45379 4.8 6.45696C4.8 6.46003 4.8 6.4632 4.8 6.46637C4.8 6.46963 4.8 6.4728 4.8 6.47597C4.8 6.47914 4.8 6.4824 4.8 6.48557C4.8 6.48883 4.8 6.492 4.8 6.49526C4.8 6.49853 4.8 6.50179 4.8 6.50506C4.8 6.50832 4.8 6.51158 4.8 6.51485C4.8 6.51811 4.8 6.52147 4.8 6.52474C4.8 6.528 4.8 6.53136 4.8 6.53472C4.8 6.53798 4.8 6.54134 4.8 6.5447C4.8 6.54806 4.8 6.55142 4.8 6.55478C4.8 6.55814 4.8 6.5615 4.8 6.56496C4.8 6.56832 4.8 6.57168 4.8 6.57514C4.8 6.57859 4.8 6.58195 4.8 6.58541C4.8 6.58886 4.8 6.59232 4.8 6.59578C4.8 6.59923 4.8 6.60269 4.8 6.60614C4.8 6.6096 4.8 6.61315 4.8 6.61661C4.8 6.62016 4.8 6.62362 4.8 6.62717C4.8 6.63072 4.8 6.63427 4.8 6.63782C4.8 6.64138 4.8 6.64493 4.8 6.64848C4.8 6.65203 4.8 6.65558 4.8 6.65923C4.8 6.66278 4.8 6.66643 4.8 6.67008C4.8 6.67363 4.8 6.67728 4.8 6.68093C4.8 6.68458 4.8 6.68822 4.8 6.69187C4.8 6.69552 4.8 6.69917 4.8 6.70291C4.8 6.70656 4.8 6.7103 4.8 6.71395C4.8 6.7177 4.8 6.72144 4.8 6.72518C4.8 6.72883 4.8 6.73258 4.8 6.73642C4.8 6.74016 4.8 6.7439 4.8 6.74765C4.8 6.75149 4.8 6.75523 4.8 6.75907C4.8 6.76282 4.8 6.76666 4.8 6.7705C4.8 6.77434 4.8 6.77818 4.8 6.78202C4.8 6.78586 4.8 6.7897 4.8 6.79354C4.8 6.79747 4.8 6.80131 4.8 6.80525C4.8 6.80909 4.8 6.81302 4.8 6.81696C4.8 6.8208 4.8 6.82474 4.8 6.82867C4.8 6.8327 4.8 6.83664 4.8 6.84058C4.8 6.84451 4.8 6.84854 4.8 6.85248C4.8 6.85651 4.8 6.86054 4.8 6.86448C4.8 6.86851 4.8 6.87254 4.8 6.87658C4.8 6.88061 4.8 6.88464 4.8 6.88877C4.8 6.8928 4.8 6.89683 4.8 6.90096C4.8 6.90509 4.8 6.90912 4.8 6.91325C4.8 6.91738 4.8 6.9215 4.8 6.92563C4.8 6.92976 4.8 6.93389 4.8 6.93802C4.8 6.94224 4.8 6.94637 4.8 6.95059C4.8 6.95472 4.8 6.95894 4.8 6.96317C4.8 6.96739 4.8 6.97162 4.8 6.97584C4.8 6.98006 4.8 6.98429 4.8 6.98851C4.8 6.99283 4.8 6.99706 4.8 7.00138C4.8 7.0056 4.8 7.00992 4.8 7.01424C4.8 7.01856 4.8 7.02288 4.8 7.0272C4.8 7.03152 4.8 7.03584 4.8 7.04026C4.8 7.04458 4.8 7.04899 4.8 7.05331C4.8 7.05773 4.8 7.06214 4.8 7.06646C4.8 7.07088 4.8 7.0753 4.8 7.07981C4.8 7.08422 4.8 7.08864 4.8 7.09306C4.8 7.09757 4.8 7.10198 4.8 7.1065C4.8 7.11101 4.8 7.11552 4.8 7.12003C4.8 7.12445 4.8 7.12906 4.8 7.13357C4.8 7.13808 4.8 7.14259 4.8 7.1472C4.8 7.15171 4.8 7.15632 4.8 7.16093C4.8 7.16544 4.8 7.17005 4.8 7.17466C4.8 7.17926 4.8 7.18387 4.8 7.18858C4.8 7.19318 4.8 7.19779 4.8 7.2025C4.8 7.2072 4.8 7.21181 4.8 7.21651C4.8 7.22122 4.8 7.22592 4.8 7.23062C4.8 7.23533 4.8 7.24003 4.8 7.24483C4.8 7.24954 4.8 7.25424 4.8 7.25904C4.8 7.26384 4.8 7.26854 4.8 7.27334C4.8 7.27814 4.8 7.28294 4.8 7.28774C4.8 7.29264 4.8 7.29744 4.8 7.30224C4.8 7.30714 4.8 7.31194 4.8 7.31683C4.8 7.32173 4.8 7.32662 4.8 7.33152C4.8 7.33642 4.8 7.34131 4.8 7.34621C4.8 7.3511 4.8 7.3561 4.8 7.36099C4.8 7.36598 4.8 7.37098 4.8 7.37587C4.8 7.38086 4.8 7.38586 4.8 7.39085C4.8 7.39584 4.8 7.40093 4.8 7.40592C4.8 7.41091 4.8 7.416 4.8 7.42109C4.8 7.42608 4.8 7.43117 4.8 7.43626C4.8 7.44134 4.8 7.44643 4.8 7.45152C4.8 7.4567 4.8 7.46179 4.8 7.46688C4.8 7.47206 4.8 7.47725 4.8 7.48234C4.8 7.48752 4.8 7.4927 4.8 7.49789C4.8 7.50307 4.8 7.50835 4.8 7.51354C4.8 7.51872 4.8 7.524 4.8 7.52918C4.8 7.53446 4.8 7.53974 4.8 7.54502C4.8 7.5503 4.8 7.55558 4.8 7.56086C4.8 7.56614 4.8 7.57152 4.8 7.5768C4.8 7.58218 4.8 7.58746 4.8 7.59283C4.8 7.59821 4.8 7.60358 4.8 7.60896C4.8 7.61434 4.8 7.61971 4.8 7.62518C4.8 7.63056 4.8 7.63594 4.8 7.64141C4.8 7.64688 4.8 7.65235 4.8 7.65773C4.8 7.6632 4.8 7.66877 4.8 7.67424C4.8 7.67971 4.8 7.68518 4.8 7.69075C4.8 7.69622 4.8 7.70179 4.8 7.70736C4.8 7.71293 4.8 7.7185 4.8 7.72406C4.8 7.72963 4.8 7.7352 4.8 7.74086C4.8 7.74643 4.8 7.7521 4.8 7.75766C4.8 7.76333 4.8 7.76899 4.8 7.77466C4.8 7.78032 4.8 7.78598 4.8 7.79165C4.8 7.79741 4.8 7.80307 4.8 7.80883C4.8 7.8145 4.8 7.82026 4.8 7.82602C4.8 7.83178 4.8 7.83754 4.8 7.8433C4.8 7.84906 4.8 7.85491 4.8 7.86067C4.8 7.86653 4.8 7.87229 4.8 7.87814C4.8 7.884 4.8 7.88986 4.8 7.89571C4.8 7.90157 4.8 7.90752 4.8 7.91338C4.8 7.91923 4.8 7.92518 4.8 7.93114C4.8 7.93699 4.8 7.94294 4.8 7.9489C4.8 7.95485 4.8 7.9608 4.8 7.96685C4.8 7.9728 4.8 7.97875 4.8 7.9848C4.8 7.99085 4.8 7.9968 4.8 8.00285C4.8 8.0089 4.8 8.01494 4.8 8.02109C4.8 8.02714 4.8 8.03318 4.8 8.03933C4.8 8.04538 4.8 8.05152 4.8 8.05766C4.8 8.06381 4.8 8.06995 4.8 8.0761C4.8 8.08224 4.8 8.08838 4.8 8.09462C4.8 8.10077 4.8 8.10701 4.8 8.11325C4.8 8.11939 4.8 8.12563 4.8 8.13197C4.8 8.13821 4.8 8.14445 4.8 8.15069C4.8 8.15702 4.8 8.16326 4.8 8.1696C4.8 8.17594 4.8 8.18227 4.8 8.18861C4.8 8.19494 4.8 8.20128 4.8 8.20762C4.8 8.21395 4.8 8.22038 4.8 8.22682C4.8 8.23315 4.8 8.23958 4.8 8.24602C4.8 8.25245 4.8 8.25888 4.8 8.26531C4.8 8.27184 4.8 8.27827 4.8 8.2848C4.8 8.29123 4.8 8.29776 4.8 8.30429C4.8 8.31082 4.8 8.31734 4.8 8.32387C4.8 8.3305 4.8 8.33702 4.8 8.34365C4.8 8.35018 4.8 8.3568 4.8 8.36342C4.8 8.37005 4.8 8.37667 4.8 8.3833C4.8 8.38992 4.8 8.39654 4.8 8.40326C4.8 8.40989 4.8 8.41661 4.8 8.42333C4.8 8.43005 4.8 8.43677 4.8 8.44349C4.8 8.45021 4.8 8.45693 4.8 8.46374C4.8 8.47046 4.8 8.47728 4.8 8.4841C4.8 8.49091 4.8 8.49773 4.8 8.50454C4.8 8.51136 4.8 8.51818 4.8 8.52509C4.8 8.5319 4.8 8.53882 4.8 8.54573C4.8 8.55254 4.8 8.55946 4.8 8.56646C4.8 8.57338 4.8 8.58029 4.8 8.5872C4.8 8.59421 4.8 8.60112 4.8 8.60813C4.8 8.61514 4.8 8.62214 4.8 8.62915C4.8 8.63616 4.8 8.64317 4.8 8.65027C4.8 8.65728 4.8 8.66438 4.8 8.67149C4.8 8.6785 4.8 8.6856 4.8 8.6927C4.8 8.6999 4.8 8.70701 4.8 8.71411C4.8 8.72131 4.8 8.72842 4.8 8.73562C4.8 8.74282 4.8 8.75002 4.8 8.75722C4.8 8.76442 4.8 8.77162 4.8 8.77891C4.8 8.78611 4.8 8.79341 4.8 8.8007C4.8 8.8079 4.8 8.8152 4.8 8.8225C4.8 8.82979 4.8 8.83718 4.8 8.84448C4.8 8.85187 4.8 8.85917 4.8 8.86656C4.8 8.87395 4.8 8.88134 4.8 8.88874C4.8 8.89613 4.8 8.90352 4.8 8.91101C4.8 8.9184 4.8 8.92589 4.8 8.93338C4.8 8.94077 4.8 8.94826 4.8 8.95584C4.8 8.96333 4.8 8.97082 4.8 8.9784C4.8 8.98589 4.8 8.99347 4.8 9.00096C4.8 9.00854 4.8 9.01613 4.8 9.02371C4.8 9.03139 4.8 9.03898 4.8 9.04666C4.8 9.05424 4.8 9.06192 4.8 9.0696C4.8 9.07718 4.8 9.08486 4.8 9.09264C4.8 9.10032 4.8 9.108 4.8 9.11578C4.8 9.12346 4.8 9.13123 4.8 9.13901C4.8 9.14678 4.8 9.15456 4.8 9.16234C4.8 9.17011 4.8 9.17798 4.8 9.18576C4.8 9.19363 4.8 9.2015 4.8 9.20938C4.8 9.21725 4.8 9.22512 4.8 9.23299C4.8 9.24086 4.8 9.24883 4.8 9.2567C4.8 9.26467 4.8 9.27264 4.8 9.28061C4.8 9.28858 4.8 9.29654 4.8 9.30451C4.8 9.31258 4.8 9.32054 4.8 9.32861C4.8 9.33667 4.8 9.34474 4.8 9.3528C4.8 9.36086 4.8 9.36893 4.8 9.37699C4.8 9.38515 4.8 9.39322 4.8 9.40138C4.8 9.40954 4.8 9.4177 4.8 9.42586C4.8 9.43402 4.8 9.44218 4.8 9.45043C4.8 9.45859 4.8 9.46685 4.8 9.4751C4.8 9.48336 4.8 9.49162 4.8 9.49987C4.8 9.50813 4.8 9.51638 4.8 9.52474C4.8 9.53299 4.8 9.54134 4.8 9.5497C4.8 9.55805 4.8 9.5664 4.8 9.57475C4.8 9.5832 4.8 9.59155 4.8 9.6C4.8 9.60835 4.8 9.6168 4.8 9.62525C4.8 9.6337 4.8 9.64214 4.8 9.65069C4.8 9.65913 4.8 9.66758 4.8 9.67613C4.8 9.68467 4.8 9.69322 4.8 9.70176C4.8 9.7103 4.8 9.71885 4.8 9.72749C4.8 9.73603 4.8 9.74467 4.8 9.75331C4.8 9.76186 4.8 9.7705 4.8 9.77923C4.8 9.78787 4.8 9.79651 4.8 9.80525C4.8 9.81389 4.8 9.82262 4.8 9.83136C4.8 9.84009 4.8 9.84883 4.8 9.85757C4.8 9.8663 4.8 9.87514 4.8 9.88387C4.8 9.8927 4.8 9.90154 4.8 9.91037C4.8 9.9192 4.8 9.92803 4.8 9.93696C4.8 9.94579 4.8 9.95472 4.8 9.96355C4.8 9.97248 4.8 9.98141 4.8 9.99034C4.8 9.99926 4.8 10.0083 4.8 10.0172C4.8 10.0262 4.8 10.0352 4.8 10.0442C4.8 10.0532 4.8 10.0622 4.8 10.0713C4.8 10.0804 4.8 10.0894 4.8 10.0985C4.8 10.1076 4.8 10.1167 4.8 10.1258C4.8 10.1349 4.8 10.144 4.8 10.1532C4.8 10.1624 4.8 10.1716 4.8 10.1807C4.8 10.1899 4.8 10.1991 4.8 10.2084C4.8 10.2176 4.8 10.2269 4.8 10.2361C4.8 10.2454 4.8 10.2546 4.8 10.2639C4.8 10.2732 4.8 10.2826 4.8 10.292C4.8 10.3013 4.8 10.3106 4.8 10.32H6.24C6.24 10.3106 6.24 10.3013 6.24 10.292C6.24 10.2826 6.24 10.2732 6.24 10.2639C6.24 10.2546 6.24 10.2454 6.24 10.2361C6.24 10.2269 6.24 10.2176 6.24 10.2084C6.24 10.1991 6.24 10.1899 6.24 10.1807C6.24 10.1716 6.24 10.1624 6.24 10.1532C6.24 10.144 6.24 10.1349 6.24 10.1258C6.24 10.1167 6.24 10.1076 6.24 10.0985C6.24 10.0894 6.24 10.0804 6.24 10.0713C6.24 10.0622 6.24 10.0532 6.24 10.0442C6.24 10.0352 6.24 10.0262 6.24 10.0172C6.24 10.0083 6.24 9.99926 6.24 9.99034C6.24 9.98141 6.24 9.97248 6.24 9.96355C6.24 9.95472 6.24 9.94579 6.24 9.93696C6.24 9.92803 6.24 9.9192 6.24 9.91037C6.24 9.90154 6.24 9.8927 6.24 9.88387C6.24 9.87514 6.24 9.8663 6.24 9.85757C6.24 9.84883 6.24 9.84009 6.24 9.83136C6.24 9.82262 6.24 9.81389 6.24 9.80525C6.24 9.79651 6.24 9.78787 6.24 9.77923C6.24 9.7705 6.24 9.76186 6.24 9.75331C6.24 9.74467 6.24 9.73603 6.24 9.72749C6.24 9.71885 6.24 9.7103 6.24 9.70176C6.24 9.69322 6.24 9.68467 6.24 9.67613C6.24 9.66758 6.24 9.65913 6.24 9.65069C6.24 9.64214 6.24 9.6337 6.24 9.62525C6.24 9.6168 6.24 9.60835 6.24 9.6C6.24 9.59155 6.24 9.5832 6.24 9.57475C6.24 9.5664 6.24 9.55805 6.24 9.5497C6.24 9.54134 6.24 9.53299 6.24 9.52474C6.24 9.51638 6.24 9.50813 6.24 9.49987C6.24 9.49162 6.24 9.48336 6.24 9.4751C6.24 9.46685 6.24 9.45859 6.24 9.45043C6.24 9.44218 6.24 9.43402 6.24 9.42586C6.24 9.4177 6.24 9.40954 6.24 9.40138C6.24 9.39322 6.24 9.38515 6.24 9.37699C6.24 9.36893 6.24 9.36086 6.24 9.3528C6.24 9.34474 6.24 9.33667 6.24 9.32861C6.24 9.32054 6.24 9.31258 6.24 9.30451C6.24 9.29654 6.24 9.28858 6.24 9.28061C6.24 9.27264 6.24 9.26467 6.24 9.2567C6.24 9.24883 6.24 9.24086 6.24 9.23299C6.24 9.22512 6.24 9.21725 6.24 9.20938C6.24 9.2015 6.24 9.19363 6.24 9.18576C6.24 9.17798 6.24 9.17011 6.24 9.16234C6.24 9.15456 6.24 9.14678 6.24 9.13901C6.24 9.13123 6.24 9.12346 6.24 9.11578C6.24 9.108 6.24 9.10032 6.24 9.09264C6.24 9.08486 6.24 9.07718 6.24 9.0696C6.24 9.06192 6.24 9.05424 6.24 9.04666C6.24 9.03898 6.24 9.03139 6.24 9.02371C6.24 9.01613 6.24 9.00854 6.24 9.00096C6.24 8.99347 6.24 8.98589 6.24 8.9784C6.24 8.97082 6.24 8.96333 6.24 8.95584C6.24 8.94826 6.24 8.94077 6.24 8.93338C6.24 8.92589 6.24 8.9184 6.24 8.91101C6.24 8.90352 6.24 8.89613 6.24 8.88874C6.24 8.88134 6.24 8.87395 6.24 8.86656C6.24 8.85917 6.24 8.85187 6.24 8.84448C6.24 8.83718 6.24 8.82979 6.24 8.8225C6.24 8.8152 6.24 8.8079 6.24 8.8007C6.24 8.79341 6.24 8.78611 6.24 8.77891C6.24 8.77162 6.24 8.76442 6.24 8.75722C6.24 8.75002 6.24 8.74282 6.24 8.73562C6.24 8.72842 6.24 8.72131 6.24 8.71411C6.24 8.70701 6.24 8.6999 6.24 8.6927C6.24 8.6856 6.24 8.6785 6.24 8.67149C6.24 8.66438 6.24 8.65728 6.24 8.65027C6.24 8.64317 6.24 8.63616 6.24 8.62915C6.24 8.62214 6.24 8.61514 6.24 8.60813C6.24 8.60112 6.24 8.59421 6.24 8.5872C6.24 8.58029 6.24 8.57338 6.24 8.56646C6.24 8.55946 6.24 8.55254 6.24 8.54573C6.24 8.53882 6.24 8.5319 6.24 8.52509C6.24 8.51818 6.24 8.51136 6.24 8.50454C6.24 8.49773 6.24 8.49091 6.24 8.4841C6.24 8.47728 6.24 8.47046 6.24 8.46374C6.24 8.45693 6.24 8.45021 6.24 8.44349C6.24 8.43677 6.24 8.43005 6.24 8.42333C6.24 8.41661 6.24 8.40989 6.24 8.40326C6.24 8.39654 6.24 8.38992 6.24 8.3833C6.24 8.37667 6.24 8.37005 6.24 8.36342C6.24 8.3568 6.24 8.35018 6.24 8.34365C6.24 8.33702 6.24 8.3305 6.24 8.32387C6.24 8.31734 6.24 8.31082 6.24 8.30429C6.24 8.29776 6.24 8.29123 6.24 8.2848C6.24 8.27827 6.24 8.27184 6.24 8.26531C6.24 8.25888 6.24 8.25245 6.24 8.24602C6.24 8.23958 6.24 8.23315 6.24 8.22682C6.24 8.22038 6.24 8.21395 6.24 8.20762C6.24 8.20128 6.24 8.19494 6.24 8.18861C6.24 8.18227 6.24 8.17594 6.24 8.1696C6.24 8.16326 6.24 8.15702 6.24 8.15069C6.24 8.14445 6.24 8.13821 6.24 8.13197C6.24 8.12563 6.24 8.11939 6.24 8.11325C6.24 8.10701 6.24 8.10077 6.24 8.09462C6.24 8.08838 6.24 8.08224 6.24 8.0761C6.24 8.06995 6.24 8.06381 6.24 8.05766C6.24 8.05152 6.24 8.04538 6.24 8.03933C6.24 8.03318 6.24 8.02714 6.24 8.02109C6.24 8.01494 6.24 8.0089 6.24 8.00285C6.24 7.9968 6.24 7.99085 6.24 7.9848C6.24 7.97875 6.24 7.9728 6.24 7.96685C6.24 7.9608 6.24 7.95485 6.24 7.9489C6.24 7.94294 6.24 7.93699 6.24 7.93114C6.24 7.92518 6.24 7.91923 6.24 7.91338C6.24 7.90752 6.24 7.90157 6.24 7.89571C6.24 7.88986 6.24 7.884 6.24 7.87814C6.24 7.87229 6.24 7.86653 6.24 7.86067C6.24 7.85491 6.24 7.84906 6.24 7.8433C6.24 7.83754 6.24 7.83178 6.24 7.82602C6.24 7.82026 6.24 7.8145 6.24 7.80883C6.24 7.80307 6.24 7.79741 6.24 7.79165C6.24 7.78598 6.24 7.78032 6.24 7.77466C6.24 7.76899 6.24 7.76333 6.24 7.75766C6.24 7.7521 6.24 7.74643 6.24 7.74086C6.24 7.7352 6.24 7.72963 6.24 7.72406C6.24 7.7185 6.24 7.71293 6.24 7.70736C6.24 7.70179 6.24 7.69622 6.24 7.69075C6.24 7.68518 6.24 7.67971 6.24 7.67424C6.24 7.66877 6.24 7.6632 6.24 7.65773C6.24 7.65235 6.24 7.64688 6.24 7.64141C6.24 7.63594 6.24 7.63056 6.24 7.62518C6.24 7.61971 6.24 7.61434 6.24 7.60896C6.24 7.60358 6.24 7.59821 6.24 7.59283C6.24 7.58746 6.24 7.58218 6.24 7.5768C6.24 7.57152 6.24 7.56614 6.24 7.56086C6.24 7.55558 6.24 7.5503 6.24 7.54502C6.24 7.53974 6.24 7.53446 6.24 7.52918C6.24 7.524 6.24 7.51872 6.24 7.51354C6.24 7.50835 6.24 7.50307 6.24 7.49789C6.24 7.4927 6.24 7.48752 6.24 7.48234C6.24 7.47725 6.24 7.47206 6.24 7.46688C6.24 7.46179 6.24 7.4567 6.24 7.45152C6.24 7.44643 6.24 7.44134 6.24 7.43626C6.24 7.43117 6.24 7.42608 6.24 7.42109C6.24 7.416 6.24 7.41091 6.24 7.40592C6.24 7.40093 6.24 7.39584 6.24 7.39085C6.24 7.38586 6.24 7.38086 6.24 7.37587C6.24 7.37098 6.24 7.36598 6.24 7.36099C6.24 7.3561 6.24 7.3511 6.24 7.34621C6.24 7.34131 6.24 7.33642 6.24 7.33152C6.24 7.32662 6.24 7.32173 6.24 7.31683C6.24 7.31194 6.24 7.30714 6.24 7.30224C6.24 7.29744 6.24 7.29264 6.24 7.28774C6.24 7.28294 6.24 7.27814 6.24 7.27334C6.24 7.26854 6.24 7.26384 6.24 7.25904C6.24 7.25424 6.24 7.24954 6.24 7.24483C6.24 7.24003 6.24 7.23533 6.24 7.23062C6.24 7.22592 6.24 7.22122 6.24 7.21651C6.24 7.21181 6.24 7.2072 6.24 7.2025C6.24 7.19779 6.24 7.19318 6.24 7.18858C6.24 7.18387 6.24 7.17926 6.24 7.17466C6.24 7.17005 6.24 7.16544 6.24 7.16093C6.24 7.15632 6.24 7.15171 6.24 7.1472C6.24 7.14259 6.24 7.13808 6.24 7.13357C6.24 7.12906 6.24 7.12445 6.24 7.12003C6.24 7.11552 6.24 7.11101 6.24 7.1065C6.24 7.10198 6.24 7.09757 6.24 7.09306C6.24 7.08864 6.24 7.08422 6.24 7.07981C6.24 7.0753 6.24 7.07088 6.24 7.06646C6.24 7.06214 6.24 7.05773 6.24 7.05331C6.24 7.04899 6.24 7.04458 6.24 7.04026C6.24 7.03584 6.24 7.03152 6.24 7.0272C6.24 7.02288 6.24 7.01856 6.24 7.01424C6.24 7.00992 6.24 7.0056 6.24 7.00138C6.24 6.99706 6.24 6.99283 6.24 6.98851C6.24 6.98429 6.24 6.98006 6.24 6.97584C6.24 6.97162 6.24 6.96739 6.24 6.96317C6.24 6.95894 6.24 6.95472 6.24 6.95059C6.24 6.94637 6.24 6.94224 6.24 6.93802C6.24 6.93389 6.24 6.92976 6.24 6.92563C6.24 6.9215 6.24 6.91738 6.24 6.91325C6.24 6.90912 6.24 6.90509 6.24 6.90096C6.24 6.89683 6.24 6.8928 6.24 6.88877C6.24 6.88464 6.24 6.88061 6.24 6.87658C6.24 6.87254 6.24 6.86851 6.24 6.86448C6.24 6.86054 6.24 6.85651 6.24 6.85248C6.24 6.84854 6.24 6.84451 6.24 6.84058C6.24 6.83664 6.24 6.8327 6.24 6.82867C6.24 6.82474 6.24 6.8208 6.24 6.81696C6.24 6.81302 6.24 6.80909 6.24 6.80525C6.24 6.80131 6.24 6.79747 6.24 6.79354C6.24 6.7897 6.24 6.78586 6.24 6.78202C6.24 6.77818 6.24 6.77434 6.24 6.7705C6.24 6.76666 6.24 6.76282 6.24 6.75907C6.24 6.75523 6.24 6.75149 6.24 6.74765C6.24 6.7439 6.24 6.74016 6.24 6.73642C6.24 6.73258 6.24 6.72883 6.24 6.72518C6.24 6.72144 6.24 6.7177 6.24 6.71395C6.24 6.7103 6.24 6.70656 6.24 6.70291C6.24 6.69917 6.24 6.69552 6.24 6.69187C6.24 6.68822 6.24 6.68458 6.24 6.68093C6.24 6.67728 6.24 6.67363 6.24 6.67008C6.24 6.66643 6.24 6.66278 6.24 6.65923C6.24 6.65558 6.24 6.65203 6.24 6.64848C6.24 6.64493 6.24 6.64138 6.24 6.63782C6.24 6.63427 6.24 6.63072 6.24 6.62717C6.24 6.62362 6.24 6.62016 6.24 6.61661C6.24 6.61315 6.24 6.6096 6.24 6.60614C6.24 6.60269 6.24 6.59923 6.24 6.59578C6.24 6.59232 6.24 6.58886 6.24 6.58541C6.24 6.58195 6.24 6.57859 6.24 6.57514C6.24 6.57168 6.24 6.56832 6.24 6.56496C6.24 6.5615 6.24 6.55814 6.24 6.55478C6.24 6.55142 6.24 6.54806 6.24 6.5447C6.24 6.54134 6.24 6.53798 6.24 6.53472C6.24 6.53136 6.24 6.528 6.24 6.52474C6.24 6.52147 6.24 6.51811 6.24 6.51485C6.24 6.51158 6.24 6.50832 6.24 6.50506C6.24 6.50179 6.24 6.49853 6.24 6.49526C6.24 6.492 6.24 6.48883 6.24 6.48557C6.24 6.4824 6.24 6.47914 6.24 6.47597C6.24 6.4728 6.24 6.46963 6.24 6.46637C6.24 6.4632 6.24 6.46003 6.24 6.45696C6.24 6.45379 6.24 6.45062 6.24 6.44746C6.24 6.44438 6.24 6.44122 6.24 6.43814C6.24 6.43498 6.24 6.4319 6.24 6.42883C6.24 6.42576 6.24 6.42259 6.24 6.41962C6.24 6.41654 6.24 6.41347 6.24 6.4104C6.24 6.40733 6.24 6.40426 6.24 6.40128C6.24 6.39821 6.24 6.39523 6.24 6.39226C6.24 6.38918 6.24 6.38621 6.24 6.38323C6.24 6.38026 6.24 6.37728 6.24 6.3743C6.24 6.37133 6.24 6.36835 6.24 6.36547C6.24 6.3625 6.24 6.35952 6.24 6.35664C6.24 6.35366 6.24 6.35078 6.24 6.3479C6.24 6.34493 6.24 6.34205 6.24 6.33917C6.24 6.33629 6.24 6.33341 6.24 6.33053C6.24 6.32774 6.24 6.32486 6.24 6.32198C6.24 6.3192 6.24 6.31632 6.24 6.31354C6.24 6.31066 6.24 6.30787 6.24 6.30509C6.24 6.3023 6.24 6.29942 6.24 6.29664C6.24 6.29386 6.24 6.29117 6.24 6.28838C6.24 6.2856 6.24 6.28282 6.24 6.28013C6.24 6.27734 6.24 6.27466 6.24 6.27187C6.24 6.26918 6.24 6.2665 6.24 6.26371C6.24 6.26102 6.24 6.25834 6.24 6.25565C6.24 6.25296 6.24 6.25027 6.24 6.24768C6.24 6.24499 6.24 6.2423 6.24 6.23971C6.24 6.23702 6.24 6.23443 6.24 6.23174C6.24 6.22915 6.24 6.22656 6.24 6.22387C6.24 6.22128 6.24 6.21869 6.24 6.2161C6.24 6.2135 6.24 6.21101 6.24 6.20842C6.24 6.20582 6.24 6.20323 6.24 6.20074C6.24 6.19814 6.24 6.19565 6.24 6.19306C6.24 6.19056 6.24 6.18806 6.24 6.18557C6.24 6.18298 6.24 6.18048 6.24 6.17798C6.24 6.17549 6.24 6.17309 6.24 6.17059C6.24 6.1681 6.24 6.1656 6.24 6.1632C6.24 6.1607 6.24 6.1583 6.24 6.15581C6.24 6.15341 6.24 6.15101 6.24 6.14861C6.24 6.14611 6.24 6.14371 6.24 6.14131C6.24 6.13891 6.24 6.13651 6.24 6.13421C6.24 6.13181 6.24 6.12941 6.24 6.1271C6.24 6.1247 6.24 6.1223 6.24 6.12C6.24 6.1177 6.24 6.1153 6.24 6.11299C6.24 6.11069 6.24 6.10838 6.24 6.10608C6.24 6.10378 6.24 6.10147 6.24 6.09917C6.24 6.09686 6.24 6.09456 6.24 6.09235C6.24 6.09005 6.24 6.08774 6.24 6.08554C6.24 6.08323 6.24 6.08102 6.24 6.07882C6.24 6.07651 6.24 6.0743 6.24 6.0721C6.24 6.06989 6.24 6.06768 6.24 6.06547C6.24 6.06326 6.24 6.06106 6.24 6.05894C6.24 6.05674 6.24 6.05453 6.24 6.05242C6.24 6.05021 6.24 6.0481 6.24 6.04589C6.24 6.04378 6.24 6.04166 6.24 6.03955C6.24 6.03734 6.24 6.03523 6.24 6.03312C6.24 6.03101 6.24 6.0289 6.24 6.02688C6.24 6.02477 6.24 6.02266 6.24 6.02054C6.24 6.01853 6.24 6.01642 6.24 6.0144C6.24 6.01229 6.24 6.01027 6.24 6.00826C6.24 6.00614 6.24 6.00413 6.24 6.00211C6.24 6.0001 6.24 5.99808 6.24 5.99606C6.24 5.99405 6.24 5.99203 6.24 5.99011C6.24 5.9881 6.24 5.98608 6.24 5.98416C6.24 5.98214 6.24 5.98022 6.24 5.97821C6.24 5.97629 6.24 5.97427 6.24 5.97235C6.24 5.97043 6.24 5.96851 6.24 5.96659C6.24 5.96467 6.24 5.96275 6.24 5.96083C6.24 5.95891 6.24 5.95699 6.24 5.95517C6.24 5.95325 6.24 5.95133 6.24 5.9495C6.24 5.94758 6.24 5.94576 6.24 5.94384C6.24 5.94202 6.24 5.94019 6.24 5.93837C6.24 5.93645 6.24 5.93462 6.24 5.9328C6.24 5.93098 6.24 5.92915 6.24 5.92733C6.24 5.9255 6.24 5.92378 6.24 5.92195C6.24 5.92013 6.24 5.9184 6.24 5.91658C6.24 5.91485 6.24 5.91302 6.24 5.9113C6.24 5.90947 6.24 5.90774 6.24 5.90602C6.24 5.90429 6.24 5.90256 6.24 5.90083C6.24 5.8991 6.24 5.89738 6.24 5.89565C6.24 5.89392 6.24 5.89219 6.24 5.89046C6.24 5.88883 6.24 5.8871 6.24 5.88547C6.24 5.88374 6.24 5.88211 6.24 5.88038C6.24 5.87875 6.24 5.87712 6.24 5.87539C6.24 5.87376 6.24 5.87213 6.24 5.8705C6.24 5.86886 6.24 5.86723 6.24 5.8656C6.24 5.86397 6.24 5.86234 6.24 5.8608C6.24 5.85917 6.24 5.85754 6.24 5.856C6.24 5.85437 6.24 5.85274 6.24 5.8512C6.24 5.84966 6.24 5.84803 6.24 5.8465C6.24 5.84496 6.24 5.84333 6.24 5.84179C6.24 5.84026 6.24 5.83872 6.24 5.83718C6.24 5.83565 6.24 5.83411 6.24 5.83267C6.24 5.83114 6.24 5.8296 6.24 5.82806C6.24 5.82662 6.24 5.82509 6.24 5.82365C6.24 5.82211 6.24 5.82067 6.24 5.81914C6.24 5.8177 6.24 5.81626 6.24 5.81482C6.24 5.81328 6.24 5.81184 6.24 5.8104C6.24 5.80896 6.24 5.80752 6.24 5.80608C6.24 5.80464 6.24 5.8033 6.24 5.80186C6.24 5.80042 6.24 5.79898 6.24 5.79763C6.24 5.79619 6.24 5.79485 6.24 5.79341C6.24 5.79206 6.24 5.79062 6.24 5.78928C6.24 5.78794 6.24 5.7865 6.24 5.78515C6.24 5.78381 6.24 5.78246 6.24 5.78112C6.24 5.77978 6.24 5.77843 6.24 5.77709C6.24 5.77574 6.24 5.7744 6.24 5.77315C6.24 5.77181 6.24 5.77046 6.24 5.76922C6.24 5.76787 6.24 5.76662 6.24 5.76528C6.24 5.76403 6.24 5.76269 6.24 5.76144C6.24 5.76019 6.24 5.75885 6.24 5.7576C6.24 5.75635 6.24 5.7551 6.24 5.75386C6.24 5.75261 6.24 5.75136 6.24 5.75011C6.24 5.74886 6.24 5.74762 6.24 5.74646C6.24 5.74522 6.24 5.74397 6.24 5.74282C6.24 5.74157 6.24 5.74042 6.24 5.73917C6.24 5.73802 6.24 5.73677 6.24 5.73562C6.24 5.73437 6.24 5.73322 6.24 5.73206C6.24 5.73091 6.24 5.72976 6.24 5.72861C6.24 5.72746 6.24 5.7263 6.24 5.72515C6.24 5.724 6.24 5.72285 6.24 5.7217C6.24 5.72054 6.24 5.71939 6.24 5.71834C6.24 5.71718 6.24 5.71603 6.24 5.71498C6.24 5.71382 6.24 5.71277 6.24 5.71171C6.24 5.71056 6.24 5.7095 6.24 5.70835C6.24 5.7073 6.24 5.70624 6.24 5.70518C6.24 5.70413 6.24 5.70307 6.24 5.70202C6.24 5.70096 6.24 5.6999 6.24 5.69885C6.24 5.69779 6.24 5.69674 6.24 5.69568C6.24 5.69462 6.24 5.69366 6.24 5.69261C6.24 5.69155 6.24 5.69059 6.24 5.68954C6.24 5.68858 6.24 5.68752 6.24 5.68656C6.24 5.6856 6.24 5.68454 6.24 5.68358C6.24 5.68262 6.24 5.68166 6.24 5.68061C6.24 5.67965 6.24 5.67869 6.24 5.67773C6.24 5.67677 6.24 5.67581 6.24 5.67485C6.24 5.67389 6.24 5.67302 6.24 5.67206C6.24 5.6711 6.24 5.67014 6.24 5.66928C6.24 5.66832 6.24 5.66736 6.24 5.6665C6.24 5.66554 6.24 5.66467 6.24 5.66371C6.24 5.66285 6.24 5.66198 6.24 5.66102C6.24 5.66016 6.24 5.6593 6.24 5.65843C6.24 5.65747 6.24 5.65661 6.24 5.65574C6.24 5.65488 6.24 5.65402 6.24 5.65315C6.24 5.65229 6.24 5.65142 6.24 5.65066C6.24 5.64979 6.24 5.64893 6.24 5.64806C6.24 5.6473 6.24 5.64643 6.24 5.64557C6.24 5.6448 6.24 5.64394 6.24 5.64317C6.24 5.6423 6.24 5.64154 6.24 5.64067C6.24 5.6399 6.24 5.63914 6.24 5.63827C6.24 5.6375 6.24 5.63674 6.24 5.63597C6.24 5.6352 6.24 5.63434 6.24 5.63357C6.24 5.6328 6.24 5.63203 6.24 5.63126C6.24 5.6305 6.24 5.62982 6.24 5.62906C6.24 5.62829 6.24 5.62752 6.24 5.62675C6.24 5.62608 6.24 5.62531 6.24 5.62454C6.24 5.62387 6.24 5.6231 6.24 5.62243C6.24 5.62166 6.24 5.62099 6.24 5.62022C6.24 5.61955 6.24 5.61888 6.24 5.61811C6.24 5.61744 6.24 5.61677 6.24 5.616C6.24 5.61533 6.24 5.61466 6.24 5.61398C6.24 5.61331 6.24 5.61264 6.24 5.61197C6.24 5.6113 6.24 5.61062 6.24 5.60995C6.24 5.60928 6.24 5.60861 6.24 5.60803C6.24 5.60736 6.24 5.60669 6.24 5.60602C6.24 5.60544 6.24 5.60477 6.24 5.6041C6.24 5.60352 6.24 5.60285 6.24 5.60227C6.24 5.6016 6.24 5.60102 6.24 5.60035C6.24 5.59978 6.24 5.5992 6.24 5.59853C6.24 5.59795 6.24 5.59738 6.24 5.5968C6.24 5.59622 6.24 5.59555 6.24 5.59498C6.24 5.5944 6.24 5.59382 6.24 5.59325C6.24 5.59267 6.24 5.5921 6.24 5.59152C6.24 5.59094 6.24 5.59037 6.24 5.58989C6.24 5.58931 6.24 5.58874 6.24 5.58816C6.24 5.58768 6.24 5.5871 6.24 5.58653C6.24 5.58605 6.24 5.58547 6.24 5.5849C6.24 5.58442 6.24 5.58384 6.24 5.58336C6.24 5.58288 6.24 5.5823 6.24 5.58182C6.24 5.58125 6.24 5.58077 6.24 5.58029C6.24 5.57971 6.24 5.57923 6.24 5.57875C6.24 5.57827 6.24 5.57779 6.24 5.57731C6.24 5.57683 6.24 5.57626 6.24 5.57578C6.24 5.5753 6.24 5.57482 6.24 5.57443C6.24 5.57395 6.24 5.57347 6.24 5.57299C6.24 5.57251 6.24 5.57203 6.24 5.57165C6.24 5.57117 6.24 5.57069 6.24 5.57021C6.24 5.56982 6.24 5.56934 6.24 5.56886C6.24 5.56848 6.24 5.568 6.24 5.56762C6.24 5.56714 6.24 5.56675 6.24 5.56627C6.24 5.56589 6.24 5.5655 6.24 5.56502C6.24 5.56464 6.24 5.56426 6.24 5.56378C6.24 5.56339 6.24 5.56301 6.24 5.56262C6.24 5.56224 6.24 5.56176 6.24 5.56138C6.24 5.56099 6.24 5.56061 6.24 5.56022C6.24 5.55984 6.24 5.55946 6.24 5.55907C6.24 5.55869 6.24 5.5583 6.24 5.55792C6.24 5.55754 6.24 5.55725 6.24 5.55686C6.24 5.55648 6.24 5.5561 6.24 5.55581C6.24 5.55542 6.24 5.55504 6.24 5.55466C6.24 5.55437 6.24 5.55398 6.24 5.5537C6.24 5.55331 6.24 5.55302 6.24 5.55264C6.24 5.55226 6.24 5.55197 6.24 5.55168C6.24 5.5513 6.24 5.55101 6.24 5.55062C6.24 5.55034 6.24 5.55005 6.24 5.54966C6.24 5.54938 6.24 5.54995 6.24 5.54966C6.24 5.54928 6.24 5.54813 6.24 5.54784C6.24 5.54755 6.24 5.54813 6.24 5.54784C6.24 5.54755 6.24 5.5464 6.24 5.54611C6.24 5.54582 6.24 5.5464 6.24 5.54611C6.24 5.54582 6.24 5.54467 6.24 5.54438C6.24 5.5441 6.24 5.54467 6.24 5.54438C6.24 5.5441 6.24 5.54304 6.24 5.54275C6.24 5.54246 6.24 5.54294 6.24 5.54275C6.24 5.54246 6.24 5.54141 6.24 5.54122C6.24 5.54093 6.24 5.5415 6.24 5.54122C6.24 5.54093 6.24 5.53997 6.24 5.53968C6.24 5.53949 6.24 5.53987 6.24 5.53968C6.24 5.53949 6.24 5.53853 6.24 5.53834C6.24 5.53805 6.24 5.53853 6.24 5.53834C6.24 5.53805 6.24 5.53718 6.24 5.53699C6.24 5.5368 6.24 5.53718 6.24 5.53699C6.24 5.5368 6.24 5.53594 6.24 5.53574C6.24 5.53546 6.24 5.53594 6.24 5.53574C6.24 5.53555 6.24 5.53469 6.24 5.5345C6.24 5.5343 6.24 5.53469 6.24 5.5345C6.24 5.5343 6.24 5.53354 6.24 5.53334C6.24 5.53315 6.24 5.53354 6.24 5.53334C6.24 5.53315 6.24 5.53248 6.24 5.53229C6.24 5.5321 6.24 5.53248 6.24 5.53229C6.24 5.53219 6.24 5.53142 6.24 5.53123C6.24 5.53104 6.24 5.52998 6.24 5.52979C6.24 5.5297 6.24 5.52864 6.24 5.52854C6.24 5.52845 6.24 5.52749 6.24 5.52739C6.24 5.5273 6.24 5.52643 6.24 5.52624C6.24 5.52614 6.24 5.52547 6.24 5.52528C6.24 5.52518 6.24 5.52432 6.24 5.52422C6.24 5.52413 6.24 5.52432 6.24 5.52422C6.24 5.52413 6.24 5.52336 6.24 5.52326C6.24 5.52317 6.24 5.52221 6.24 5.52211C6.24 5.52211 6.24 5.52125 6.24 5.52115C6.24 5.52106 6.24 5.52 6.24 5.52H5.52ZM6.24 5.52V0.72H4.8V5.52H6.24Z" fill="black"/>
</svg>
