<svg width="28" height="9" viewBox="0 0 28 9" fill="none" xmlns="http://www.w3.org/2000/svg">
<path fill-rule="evenodd" clip-rule="evenodd" d="M7.00029 8.86657H4.57709L2.75994 1.93411C2.67371 1.61526 2.49057 1.33331 2.2212 1.20046C1.54891 0.866571 0.808114 0.6008 0 0.4668V0.199886H3.9036C4.4424 0.199886 4.84646 0.6008 4.91377 1.06646L5.85663 6.06703L8.27869 0.199886H10.6345L7.00029 8.86657ZM11.9814 8.86657H9.69291L11.5774 0.199886H13.8659L11.9814 8.86657ZM16.8267 2.6008C16.8941 2.13406 17.2981 1.86714 17.7695 1.86714C18.5103 1.80011 19.3173 1.93417 19.9907 2.26691L20.3948 0.400914C19.7213 0.133999 18.9806 0 18.3083 0C16.0871 0 14.4708 1.20046 14.4708 2.86657C14.4708 4.13406 15.6157 4.79954 16.4238 5.20046C17.2981 5.60023 17.6349 5.86714 17.5675 6.26691C17.5675 6.86657 16.8941 7.13349 16.2218 7.13349C15.4137 7.13349 14.6055 6.9336 13.8659 6.59966L13.4618 8.4668C14.2699 8.79954 15.1443 8.9336 15.9524 8.9336C18.443 8.99943 19.9907 7.80011 19.9907 6C19.9907 3.73309 16.8267 3.60023 16.8267 2.6008ZM28 8.86657L26.1829 0.199886H24.2311C23.827 0.199886 23.4229 0.4668 23.2882 0.866572L19.9234 8.86657H22.2793L22.7495 7.60023H25.6441L25.9135 8.86657H28ZM24.5678 2.53383L25.2401 5.80011H23.3556L24.5678 2.53383Z" fill="white"/>
</svg>
